<svg width="365" height="115" viewBox="0 0 365 115" fill="none" xmlns="http://www.w3.org/2000/svg">
<rect width="114.213" height="114.213" rx="5" fill="url(#paint0_linear_0_169)"/>
<path d="M80.4583 10C87.7106 10.185 94.0868 12.3422 98.8915 17.9783C108.473 29.2134 105.353 49.9654 87.6099 54.7238C79.0032 57.0211 70.8773 55.6702 64.0023 49.5556C58.5928 44.747 56.507 38.3575 57.0239 31.1723C58.0319 17.2381 68.7915 10.5525 79.029 10.1137C79.5434 10.0793 80.0577 10.0291 80.4583 10ZM80.1223 23.3183C74.4879 23.3051 70.5826 27.3841 70.5723 33.2898C70.5723 39.2457 74.4233 43.4173 79.9698 43.4411C85.5655 43.4622 89.6362 39.2352 89.6517 33.3797C89.6646 27.5903 85.6326 23.3315 80.1223 23.3183Z" fill="white"/>
<path d="M79.2044 104.206C72.4974 103.915 65.5216 101.332 60.7789 94.3504C52.8494 82.6818 56.7289 62.7017 75.4076 59.0536C82.952 57.5811 90.0467 58.9135 96.1437 63.8516C102.38 68.9009 104.761 75.79 104.024 83.755C102.807 96.9015 92.2565 104.187 79.2044 104.206ZM70.5719 81.8226C70.5719 87.7283 74.472 91.9527 79.9901 91.995C85.5082 92.0373 89.6512 87.7257 89.6487 81.8728C89.6487 76.0781 85.609 71.8008 80.1012 71.7638C74.5935 71.7268 70.5822 75.9486 70.5719 81.8226Z" fill="white"/>
<path d="M41.6141 88.8036C38.7349 88.8036 36.2123 88.7639 33.6898 88.8247C32.7542 88.8458 32.3975 88.6132 32.4233 87.5875C32.4854 84.5051 32.4699 81.4227 32.4233 78.335C32.4233 77.4653 32.5887 77.0926 33.5502 77.0979C40.6552 77.1349 47.7654 77.1164 54.8652 77.119C55.4054 77.119 56.0438 76.9657 56.0128 77.9121C55.806 84.3016 54.7748 90.4531 50.8772 95.7085C47.4294 100.361 42.7668 102.944 37.179 103.835C29.5209 105.054 22.6149 103.383 16.784 98.019C12.9072 94.4608 10.9119 89.8425 10.2192 84.6161C9.03548 75.7073 12.5608 65.3181 22.8681 60.8241C27.2687 58.8511 32.1098 58.1349 36.8766 58.7515C43.5396 59.6133 48.6286 62.9336 52.1049 68.8446C52.6347 69.7487 52.6477 70.1796 51.6138 70.6951C48.5873 72.1729 45.6176 73.7722 42.635 75.3399C42.0948 75.6227 41.7614 75.784 41.2988 75.0755C38.4661 70.8009 35.0157 69.4315 30.5495 70.7454C26.4866 71.9403 23.504 75.9532 23.2972 80.5028C23.0258 86.501 26.1402 91.0929 31.4179 92.1635C35.1914 92.9302 38.5798 92.0287 41.6141 88.8036Z" fill="white"/>
<path d="M12.4 33.9702C12.4 27.1472 12.4439 20.3215 12.3638 13.4958C12.3483 12.0947 12.7851 11.8145 14.0438 11.8489C17.8345 11.9282 21.6252 11.9282 25.4159 11.8489C26.7082 11.8225 27.1114 12.1767 27.1011 13.5408C27.0442 22.4337 27.0726 31.3293 27.0726 40.2249C27.0726 42.3398 27.0726 42.3398 29.2178 42.3398H51.5641C53.2493 42.3398 53.2493 42.3398 53.2519 44.1189C53.2519 47.5978 53.2183 51.0767 53.2699 54.5557C53.288 55.6633 52.8848 56.0149 51.8433 56.0176C39.0927 56.0493 26.3481 56.103 13.6096 56.1788C12.4594 56.1788 12.3896 55.6131 12.3948 54.7064C12.4103 47.7943 12.412 40.8823 12.4 33.9702Z" fill="white"/>
<path d="M159.229 30.0586H163.009V46.5226H171.493V50.1066H159.229V30.0586ZM183.268 50.5546C181.775 50.5546 180.384 50.2839 179.096 49.7426C177.827 49.2012 176.726 48.4639 175.792 47.5306C174.859 46.5786 174.122 45.4679 173.58 44.1986C173.058 42.9106 172.796 41.5386 172.796 40.0826C172.796 38.6266 173.058 37.2639 173.58 35.9946C174.122 34.7066 174.859 33.5959 175.792 32.6626C176.726 31.7106 177.827 30.9639 179.096 30.4226C180.384 29.8812 181.775 29.6106 183.268 29.6106C184.762 29.6106 186.143 29.8812 187.412 30.4226C188.7 30.9639 189.811 31.7106 190.744 32.6626C191.678 33.5959 192.406 34.7066 192.928 35.9946C193.47 37.2639 193.74 38.6266 193.74 40.0826C193.74 41.5386 193.47 42.9106 192.928 44.1986C192.406 45.4679 191.678 46.5786 190.744 47.5306C189.811 48.4639 188.7 49.2012 187.412 49.7426C186.143 50.2839 184.762 50.5546 183.268 50.5546ZM183.268 46.9706C184.202 46.9706 185.07 46.8026 185.872 46.4666C186.694 46.1306 187.403 45.6639 188 45.0666C188.616 44.4692 189.092 43.7506 189.428 42.9106C189.783 42.0519 189.96 41.1092 189.96 40.0826C189.96 39.0559 189.783 38.1226 189.428 37.2826C189.092 36.4239 188.616 35.6959 188 35.0986C187.403 34.5012 186.694 34.0346 185.872 33.6986C185.07 33.3626 184.202 33.1946 183.268 33.1946C182.335 33.1946 181.458 33.3626 180.636 33.6986C179.834 34.0346 179.124 34.5012 178.508 35.0986C177.911 35.6959 177.435 36.4239 177.08 37.2826C176.744 38.1226 176.576 39.0559 176.576 40.0826C176.576 41.1092 176.744 42.0519 177.08 42.9106C177.435 43.7506 177.911 44.4692 178.508 45.0666C179.124 45.6639 179.834 46.1306 180.636 46.4666C181.458 46.8026 182.335 46.9706 183.268 46.9706ZM206.046 39.1026H215.874C215.93 39.3266 215.977 39.5972 216.014 39.9146C216.052 40.2319 216.07 40.5492 216.07 40.8666C216.07 42.1546 215.874 43.3679 215.482 44.5066C215.09 45.6452 214.474 46.6626 213.634 47.5586C212.738 48.5106 211.665 49.2479 210.414 49.7706C209.164 50.2932 207.736 50.5546 206.13 50.5546C204.674 50.5546 203.302 50.2932 202.014 49.7706C200.726 49.2479 199.606 48.5199 198.654 47.5866C197.702 46.6532 196.946 45.5519 196.386 44.2826C195.826 42.9946 195.546 41.5946 195.546 40.0826C195.546 38.5706 195.826 37.1799 196.386 35.9106C196.946 34.6226 197.702 33.5119 198.654 32.5786C199.606 31.6452 200.726 30.9172 202.014 30.3946C203.302 29.8719 204.674 29.6106 206.13 29.6106C207.754 29.6106 209.201 29.8906 210.47 30.4506C211.758 31.0106 212.86 31.7852 213.774 32.7746L211.17 35.3226C210.517 34.6319 209.789 34.1092 208.986 33.7546C208.184 33.3812 207.222 33.1946 206.102 33.1946C205.188 33.1946 204.32 33.3626 203.498 33.6986C202.677 34.0159 201.958 34.4732 201.342 35.0706C200.726 35.6679 200.232 36.3959 199.858 37.2546C199.504 38.0946 199.326 39.0372 199.326 40.0826C199.326 41.1279 199.504 42.0799 199.858 42.9386C200.232 43.7786 200.726 44.4972 201.342 45.0946C201.977 45.6919 202.705 46.1586 203.526 46.4946C204.348 46.8119 205.225 46.9706 206.158 46.9706C207.222 46.9706 208.118 46.8212 208.846 46.5226C209.593 46.2052 210.228 45.8039 210.75 45.3186C211.124 44.9826 211.441 44.5626 211.702 44.0586C211.982 43.5359 212.197 42.9572 212.346 42.3226H206.046V39.1026ZM228.686 50.5546C227.193 50.5546 225.802 50.2839 224.514 49.7426C223.245 49.2012 222.143 48.4639 221.21 47.5306C220.277 46.5786 219.539 45.4679 218.998 44.1986C218.475 42.9106 218.214 41.5386 218.214 40.0826C218.214 38.6266 218.475 37.2639 218.998 35.9946C219.539 34.7066 220.277 33.5959 221.21 32.6626C222.143 31.7106 223.245 30.9639 224.514 30.4226C225.802 29.8812 227.193 29.6106 228.686 29.6106C230.179 29.6106 231.561 29.8812 232.83 30.4226C234.118 30.9639 235.229 31.7106 236.162 32.6626C237.095 33.5959 237.823 34.7066 238.346 35.9946C238.887 37.2639 239.158 38.6266 239.158 40.0826C239.158 41.5386 238.887 42.9106 238.346 44.1986C237.823 45.4679 237.095 46.5786 236.162 47.5306C235.229 48.4639 234.118 49.2012 232.83 49.7426C231.561 50.2839 230.179 50.5546 228.686 50.5546ZM228.686 46.9706C229.619 46.9706 230.487 46.8026 231.29 46.4666C232.111 46.1306 232.821 45.6639 233.418 45.0666C234.034 44.4692 234.51 43.7506 234.846 42.9106C235.201 42.0519 235.378 41.1092 235.378 40.0826C235.378 39.0559 235.201 38.1226 234.846 37.2826C234.51 36.4239 234.034 35.6959 233.418 35.0986C232.821 34.5012 232.111 34.0346 231.29 33.6986C230.487 33.3626 229.619 33.1946 228.686 33.1946C227.753 33.1946 226.875 33.3626 226.054 33.6986C225.251 34.0346 224.542 34.5012 223.926 35.0986C223.329 35.6959 222.853 36.4239 222.498 37.2826C222.162 38.1226 221.994 39.0559 221.994 40.0826C221.994 41.1092 222.162 42.0519 222.498 42.9106C222.853 43.7506 223.329 44.4692 223.926 45.0666C224.542 45.6639 225.251 46.1306 226.054 46.4666C226.875 46.8026 227.753 46.9706 228.686 46.9706ZM166.061 66.5226V84.1066H163.485V66.5226H157.885V64.0586H171.661V66.5226H166.061ZM186.054 64.0586V66.5226H176.926V72.8786H185.158V75.2866H176.926V81.6426H186.054V84.1066H174.35V64.0586H186.054ZM198.415 84.5546C195.447 84.5546 192.965 83.5559 190.967 81.5586C188.989 79.5612 187.999 77.0692 187.999 74.0826C187.999 71.0959 188.989 68.6132 190.967 66.6346C192.946 64.6186 195.429 63.6106 198.415 63.6106C201.439 63.6106 203.894 64.7026 205.779 66.8866L203.931 68.6786C202.494 66.9426 200.655 66.0746 198.415 66.0746C196.194 66.0746 194.337 66.8212 192.843 68.3146C191.369 69.7892 190.631 71.7119 190.631 74.0826C190.631 76.4532 191.369 78.3759 192.843 79.8506C194.337 81.3439 196.194 82.0906 198.415 82.0906C200.749 82.0906 202.774 81.1106 204.491 79.1506L206.367 80.9706C205.415 82.1092 204.249 82.9959 202.867 83.6306C201.486 84.2466 200.002 84.5546 198.415 84.5546ZM211.954 84.1066H209.378V64.0586H211.954V72.6546H221.978V64.0586H224.554V84.1066H221.978V75.0626H211.954V84.1066ZM231.149 84.1066H228.573V64.0586H231.709L241.453 79.6546H241.565L241.453 75.7906V64.0586H244.029V84.1066H241.341L231.149 67.7546H231.037L231.149 71.6186V84.1066ZM267.424 74.0826C267.424 77.0506 266.434 79.5332 264.456 81.5306C262.458 83.5466 260.013 84.5546 257.12 84.5546C254.208 84.5546 251.762 83.5466 249.784 81.5306C247.805 79.5332 246.816 77.0506 246.816 74.0826C246.816 71.1146 247.805 68.6319 249.784 66.6346C251.762 64.6186 254.208 63.6106 257.12 63.6106C260.032 63.6106 262.477 64.6279 264.456 66.6626C266.434 68.6599 267.424 71.1332 267.424 74.0826ZM249.448 74.0826C249.448 76.3972 250.176 78.3106 251.632 79.8226C253.106 81.3346 254.936 82.0906 257.12 82.0906C259.304 82.0906 261.124 81.3346 262.58 79.8226C264.054 78.3292 264.792 76.4159 264.792 74.0826C264.792 71.7492 264.054 69.8359 262.58 68.3426C261.124 66.8306 259.304 66.0746 257.12 66.0746C254.936 66.0746 253.106 66.8306 251.632 68.3426C250.176 69.8546 249.448 71.7679 249.448 74.0826ZM281.72 84.1066H270.464V64.0586H273.04V81.6426H281.72V84.1066ZM303.627 74.0826C303.627 77.0506 302.638 79.5332 300.659 81.5306C298.662 83.5466 296.216 84.5546 293.323 84.5546C290.411 84.5546 287.966 83.5466 285.987 81.5306C284.008 79.5332 283.019 77.0506 283.019 74.0826C283.019 71.1146 284.008 68.6319 285.987 66.6346C287.966 64.6186 290.411 63.6106 293.323 63.6106C296.235 63.6106 298.68 64.6279 300.659 66.6626C302.638 68.6599 303.627 71.1332 303.627 74.0826ZM285.651 74.0826C285.651 76.3972 286.379 78.3106 287.835 79.8226C289.31 81.3346 291.139 82.0906 293.323 82.0906C295.507 82.0906 297.327 81.3346 298.783 79.8226C300.258 78.3292 300.995 76.4159 300.995 74.0826C300.995 71.7492 300.258 69.8359 298.783 68.3426C297.327 66.8306 295.507 66.0746 293.323 66.0746C291.139 66.0746 289.31 66.8306 287.835 68.3426C286.379 69.8546 285.651 71.7679 285.651 74.0826ZM325.685 74.8946C325.685 77.6946 324.855 79.9252 323.193 81.5866C321.327 83.5652 318.872 84.5546 315.829 84.5546C312.917 84.5546 310.453 83.5466 308.437 81.5306C306.421 79.5146 305.413 77.0319 305.413 74.0826C305.413 71.1332 306.421 68.6506 308.437 66.6346C310.453 64.6186 312.917 63.6106 315.829 63.6106C317.304 63.6106 318.695 63.8719 320.001 64.3946C321.308 64.9172 322.381 65.6546 323.221 66.6066L321.373 68.4546C320.757 67.7079 319.955 67.1292 318.965 66.7186C317.995 66.2892 316.949 66.0746 315.829 66.0746C313.645 66.0746 311.797 66.8306 310.285 68.3426C308.792 69.8732 308.045 71.7866 308.045 74.0826C308.045 76.3786 308.792 78.2919 310.285 79.8226C311.797 81.3346 313.645 82.0906 315.829 82.0906C317.827 82.0906 319.488 81.5306 320.813 80.4106C322.139 79.2906 322.904 77.7506 323.109 75.7906H315.829V73.3826H325.545C325.639 73.9052 325.685 74.4092 325.685 74.8946ZM331.391 84.1066H328.815V64.0586H331.391V84.1066ZM347.136 64.0586V66.5226H338.008V72.8786H346.24V75.2866H338.008V81.6426H347.136V84.1066H335.432V64.0586H347.136ZM362.984 78.7586C362.984 80.5132 362.34 81.9226 361.052 82.9866C359.746 84.0319 358.159 84.5546 356.292 84.5546C354.631 84.5546 353.166 84.0692 351.896 83.0986C350.627 82.1279 349.75 80.8026 349.264 79.1226L351.728 78.1146C351.896 78.7119 352.13 79.2532 352.428 79.7386C352.727 80.2239 353.072 80.6439 353.464 80.9986C353.875 81.3346 354.323 81.6052 354.808 81.8106C355.294 81.9972 355.807 82.0906 356.348 82.0906C357.524 82.0906 358.486 81.7919 359.232 81.1946C359.979 80.5786 360.352 79.7666 360.352 78.7586C360.352 77.9186 360.044 77.1999 359.428 76.6026C358.85 76.0239 357.767 75.4639 356.18 74.9226C354.575 74.3439 353.576 73.9519 353.184 73.7466C351.056 72.6639 349.992 71.0679 349.992 68.9586C349.992 67.4839 350.58 66.2239 351.756 65.1786C352.951 64.1332 354.416 63.6106 356.152 63.6106C357.683 63.6106 359.008 64.0026 360.128 64.7866C361.248 65.5519 361.995 66.5132 362.368 67.6706L359.96 68.6786C359.736 67.9319 359.288 67.3159 358.616 66.8306C357.963 66.3266 357.16 66.0746 356.208 66.0746C355.2 66.0746 354.351 66.3546 353.66 66.9146C352.97 67.4372 352.624 68.1186 352.624 68.9586C352.624 69.6492 352.895 70.2466 353.436 70.7506C354.034 71.2546 355.331 71.8519 357.328 72.5426C359.363 73.2332 360.81 74.0826 361.668 75.0906C362.546 76.0799 362.984 77.3026 362.984 78.7586Z" fill="#1A1A1A"/>
<path d="M248.492 23.1066C249.837 23.1147 251.158 23.4616 252.334 24.1153C253.567 24.7733 254.582 25.7773 255.252 27.004C255.934 28.1898 256.295 29.5333 256.298 30.9013C256.301 32.2692 255.946 33.6142 255.27 34.8031C254.602 36.0228 253.599 37.0255 252.379 37.6918C251.194 38.367 249.855 38.722 248.491 38.722C247.128 38.722 245.788 38.367 244.603 37.6918C243.385 37.0242 242.382 36.0218 241.715 34.8031C241.033 33.6155 240.676 32.2696 240.678 30.9004C240.681 29.5312 241.043 28.1868 241.729 27.0018C242.402 25.7753 243.418 24.7715 244.653 24.1131C245.828 23.461 247.148 23.1148 248.492 23.1066ZM248.492 24.3943C247.37 24.4007 246.268 24.6908 245.288 25.2377C244.26 25.79 243.413 26.6277 242.85 27.65C242.277 28.6369 241.974 29.7572 241.971 30.8983C241.969 32.0394 242.267 33.1611 242.835 34.1506C243.397 35.1665 244.236 36.0022 245.254 36.5608C246.239 37.1273 247.356 37.4255 248.493 37.4255C249.63 37.4255 250.747 37.1273 251.733 36.5608C252.75 36.0033 253.587 35.1672 254.145 34.1506C254.711 33.1602 255.007 32.0389 255.004 30.8983C255.001 29.7578 254.7 28.6378 254.13 27.65C253.568 26.6266 252.721 25.7885 251.692 25.2377C250.713 24.6945 249.612 24.4067 248.492 24.4007V24.3943ZM245.058 35.2302V26.8258H247.947C248.67 26.7928 249.394 26.8717 250.093 27.0598C250.525 27.207 250.898 27.493 251.151 27.8732C251.405 28.2342 251.541 28.664 251.544 29.105C251.547 29.4029 251.49 29.6983 251.377 29.9739C251.264 30.2496 251.098 30.4999 250.887 30.7104C250.423 31.1769 249.8 31.4507 249.142 31.4766C249.406 31.5796 249.648 31.7302 249.857 31.9208C250.331 32.4298 250.747 32.989 251.099 33.5884L252.123 35.2323H250.466L249.722 33.9081C249.37 33.1758 248.89 32.5128 248.303 31.9509C247.986 31.7402 247.61 31.6385 247.23 31.6611H246.434V35.2323L245.058 35.2302ZM246.41 30.5086H248.056C248.617 30.5653 249.182 30.442 249.668 30.1567C249.894 29.9629 250.04 29.6929 250.08 29.3981C250.119 29.1033 250.049 28.8042 249.883 28.5578C249.738 28.3612 249.537 28.2118 249.307 28.1285C248.865 28.0061 248.405 27.9569 247.947 27.9826H246.402L246.41 30.5086Z" fill="#242424"/>
<defs>
<linearGradient id="paint0_linear_0_169" x1="1.80697e-07" y1="43.5926" x2="163.663" y2="46.1557" gradientUnits="userSpaceOnUse">
<stop stop-color="#F01928"/>
<stop offset="1" stop-color="#FA770F"/>
</linearGradient>
</defs>
</svg>
